/* XPM */
static char *tanglet[] = {
/* columns rows colors chars-per-pixel */
"32 32 115 2 ",
"   c #002E65",
".  c #002F69",
"X  c #00316E",
"o  c #003372",
"O  c #00377B",
"+  c #00387C",
"@  c #003B84",
"#  c #003E8C",
"$  c #00408D",
"%  c #09438B",
"&  c #004293",
"*  c #00459B",
"=  c #1D579F",
"-  c #0047A1",
";  c #0049A3",
":  c #004DAB",
">  c #0C51A8",
",  c #004FB1",
"<  c #0051B5",
"1  c #0054BC",
"2  c #0C5CBC",
"3  c #145CB4",
"4  c #296CBD",
"5  c #3970B4",
"6  c #4473AD",
"7  c #0056C1",
"8  c #0059C5",
"9  c #005BCB",
"0  c #005ED2",
"q  c #1C65C0",
"w  c #1F6BC7",
"e  c #1B6BCF",
"r  c #0061D6",
"t  c #0063DC",
"y  c #166BD3",
"u  c #2A6EC1",
"i  c #216DCA",
"p  c #2572D0",
"a  c #0066E3",
"s  c #0068E6",
"d  c #006AEB",
"f  c #0B6FE8",
"g  c #0C72EF",
"h  c #1977E9",
"j  c #006EF3",
"k  c #0070F7",
"l  c #0071FA",
"z  c #0875FC",
"x  c #1578F0",
"c  c #187AF1",
"v  c #137BFA",
"b  c #207AE7",
"n  c #2C7DE0",
"m  c #217FF2",
"M  c #3C81D6",
"N  c #1F80F5",
"B  c #1C81FC",
"V  c #3282E4",
"C  c #3F89E4",
"Z  c #3388EF",
"A  c #2184FC",
"S  c #3087F2",
"D  c #338EFD",
"F  c #5D8BC4",
"G  c #578BCB",
"H  c #4387DC",
"J  c #508CD7",
"K  c #6B9AD2",
"L  c #649BDE",
"P  c #6C9FDE",
"I  c #74A4DF",
"U  c #4C8EE0",
"Y  c #438FEB",
"T  c #4E92E6",
"R  c #4491EF",
"E  c #5494E2",
"W  c #4492F1",
"Q  c #4C98F4",
"!  c #4498FE",
"~  c #569CF0",
"^  c #659FE4",
"/  c #5BA0F6",
"(  c #5AA4FD",
")  c #70A2E0",
"_  c #77ACED",
"`  c #7CAFEC",
"'  c #67A7F5",
"]  c #6DA9F2",
"[  c #71ABF3",
"{  c #74B0FB",
"}  c #93BCED",
"|  c #9DBFE8",
" . c #8CBBF4",
".. c #80B7FA",
"X. c #8DBFFB",
"o. c #93BEF2",
"O. c #93C1F8",
"+. c #99C4FB",
"@. c #A9C7EC",
"#. c #ADCDF3",
"$. c #B0D3FE",
"%. c #B9D7FB",
"&. c #CADFF7",
"*. c #C4DFFF",
"=. c #CBE1FC",
"-. c #D3E5FC",
";. c #D7E8FD",
":. c #DBEBFE",
">. c #E2ECF8",
",. c #E5F0FE",
"<. c #E8F2FF",
"1. c #F2F7FE",
"2. c #F3F9FE",
"3. c #FEFFFF",
"4. c None",
/* pixels */
"4.4.4.4.4.4.4.4.4.4.4.4.4.4.4.: : : 4.4.4.4.4.4.4.4.4.4.4.4.4.4.",
"4.4.4.4.4.4.4.4.4.4.4.4.1 9 r r r r 0 r 7 4.4.4.4.4.4.4.4.4.4.4.",
"4.4.4.4.4.4.4.4.4.: 8 0 t t t t V _ t t r 0 1 4.4.4.4.4.4.4.4.4.",
"4.4.4.4.4.4.4.4., 0 t a t a a Y 1.3.] a a t t 9 4.4.4.4.4.4.4.4.",
"4.4.4.4.4.4.4.1 t t a a s s s R 3.3.3.~ a a a a r 4.4.4.4.4.4.4.",
"4.4.4.4.4.4.7 0 a a s s d d j j / 3.3.3.W s s s a 0 4.4.4.4.4.4.",
"4.4.4.4.4.8 9 a s s d d j k k k j { 3.3.1.S d s a a 9 4.4.4.4.4.",
"4.4.4.4.7 8 t a s s j j k k l l k v <.3.3.,.m d s a t 8 4.4.4.4.",
"4.4.4.1 9 9 a s d j j j l l l l A :.3.3.3.3.:.x d s a 9 1 4.4.4.",
"4.4.: 8 8 0 a s j j j j l l l D <.3.3.3.3.3.3.=.g d s 9 8 : 4.4.",
"4.4.7 8 8 r a d d j k k l l ! 1.3.3.3.,.D *.3.3.%.d s r 9 1 4.4.",
"4., 7 8 8 t s d d j k k k ( 3.3.3.3.;.B l v ;.3.3.] s r 9 8 : 4.",
"4.1 1 8 8 0 a s d j j k { 3.3.3.3.*.v l k k m ,.+.s a r 9 8 1 4.",
"4.1 1 8 8 9 a s d j j X.3.3.3.3.$.z l l k k j c s s a 8 8 1 1 4.",
"- 8 1 1 7 8 t a s d X.3.3.3.3.+.k k l k k j j d s s t 8 8 1 1 & ",
"4.9 8 1 1 7 0 t a s Z 1.3.3...k k k j k j d s s a a r 1 1 1 < & ",
"4.8 0 8 2 1 7 t a a a R 2.' d k j j j d d d s a a t 8 1 < < 1 * ",
"4.& r y | 1 < 8 t t a a h s d d s d s s a a a t r 8 < < 1 8 8 4.",
"4.4., n 3.P < < 8 t t t a a a a a a a a t t t 0 9 < < < 8 r & 4.",
"4.4.4.H 3.3.w , , 8 0 0 t t t t t a t t t t 0 8 < : 2 L t : 4.4.",
"4.4.4.6 2.3.e 1 : : 1 9 0 0 0 t r 0 r 0 0 9 1 : : q ) ` 8 4.4.4.",
"4.4.4.4.K 3.r 9 < ; - : 1 8 8 9 9 9 9 8 1 : - ; u P =.E 4.4.4.4.",
"4.4.4.4.4.} b 0 8 : * * * * - ; , : - * * * ; u P #.^ 4.4.4.4.4.",
"4.4.4.4.4.% o.f 0 7 * & & & & & & & & & & * u J T U 4.4.4.4.4.4.",
"4.4.4.4.4.4.=  .a 9 1 & # # # # # # # # * 4 I C H 4.4.4.4.4.4.4.",
"4.4.4.4.4.4.4.5 [ a 9 : @ @ @ @ @ @ @ & 3 >.` M 4.4.4.4.4.4.4.4.",
"4.4.4.4.4.4.4.4.F Q a 8 * O O O + + # : @.-.i 4.4.4.4.4.4.4.4.4.",
"4.4.4.4.4.4.4.4.4.G j t 1 @ o o o # : p } > 4.4.4.4.4.4.4.4.4.4.",
"4.4.4.4.4.4.4.4.4.4.< k t ; o . O : 8 0 O 4.4.4.4.4.4.4.4.4.4.4.",
"4.4.4.4.4.4.4.4.4.4.4.: d 0 o X - 8 1 4.4.4.4.4.4.4.4.4.4.4.4.4.",
"4.4.4.4.4.4.4.4.4.4.4.4.$ 0 & & < @ 4.4.4.4.4.4.4.4.4.4.4.4.4.4.",
"4.4.4.4.4.4.4.4.4.4.4.4.4.4.    4.4.4.4.4.4.4.4.4.4.4.4.4.4.4.4."
};
